<svg x="0" y="0" viewBox="0 0 24 24">
	<g>
		<path fill="#000000" d="M3.601 8.345C5.348 6.682 8.091 5 12 5c3.91 0 6.652 1.682 8.398 3.345.872.83 1.5 1.657 1.91 2.279a11.013 11.013 0 0 1 .58.98l.03.064.01.018.002.006.001.002s.001.002-.72.307c.721.305.72.306.72.306v.002l-.004.006-.008.019a7.304 7.304 0 0 1-.148.284c-.103.186-.256.448-.462.76-.412.621-1.04 1.449-1.91 2.278C18.651 17.318 15.908 19 12 19c-3.91 0-6.652-1.681-8.398-3.344-.872-.83-1.5-1.657-1.91-2.279a11.016 11.016 0 0 1-.58-.98 4.47 4.47 0 0 1-.03-.063l-.01-.019-.002-.006-.001-.002s-.001-.001.72-.306c-.721-.305-.72-.306-.72-.306v-.003l.004-.006.008-.018a4.933 4.933 0 0 1 .149-.284c.102-.187.255-.449.461-.76a13.32 13.32 0 0 1 1.91-2.28ZM1.79 12l-.72-.306a.72.72 0 0 0-.001.61l.721-.304Zm.883 0c.085.149.202.345.355.576a11.8 11.8 0 0 0 1.69 2.017c1.536 1.461 3.899 2.904 7.283 2.904 3.384 0 5.747-1.443 7.283-2.904a11.798 11.798 0 0 0 1.69-2.017c.153-.23.27-.427.355-.576a9.789 9.789 0 0 0-.355-.577c-.363-.55-.92-1.284-1.69-2.017C17.747 7.945 15.384 6.502 12 6.502c-3.384 0-5.747 1.443-7.283 2.905a11.8 11.8 0 0 0-1.69 2.017c-.153.23-.27.428-.355.577Zm19.539 0 .72.306a.72.72 0 0 0 .001-.611l-.721.305ZM12 9.28c-1.578 0-2.858 1.217-2.858 2.72 0 1.503 1.28 2.72 2.858 2.72s2.858-1.217 2.858-2.72c0-1.502-1.28-2.72-2.858-2.72ZM7.564 12c0-2.332 1.986-4.223 4.436-4.223s4.436 1.89 4.436 4.223c0 2.332-1.986 4.223-4.436 4.223S7.564 14.334 7.564 12Z">
		</path>
	</g>
</svg>
